<svg xmlns="http://www.w3.org/2000/svg" width="351" height="507" viewBox="0 0 351 507">
  <g id="Best_Selling_Product" data-name="Best Selling Product" transform="translate(-784 -5263)">
    <g id="_01" data-name="01">
      <g id="img">
        <rect id="bg" width="160" height="132" transform="translate(785 5314)" fill="#f5f5f5"/>
      </g>
      <g id="text">
        <text id="Modern_Black_Blouse" data-name="Modern Black
Blouse" transform="translate(960 5337)" fill="#23262a" font-size="16" font-family="Poppins-SemiBold, Poppins" font-weight="600" letter-spacing="0.1em"><tspan x="0" y="17">Modern Black</tspan><tspan x="0" y="42">Blouse</tspan></text>
        <text id="Category" transform="translate(960 5328)" fill="#616365" font-size="13" font-family="Poppins-Medium, Poppins" font-weight="500" letter-spacing="0.1em"><tspan x="0" y="0">Category</tspan></text>
        <text id="_35.00" data-name="$35.00" transform="translate(960 5436)" fill="#23262a" font-size="18" font-family="Poppins-SemiBold, Poppins" font-weight="600" letter-spacing="0.1em"><tspan x="0" y="0">$35.00</tspan></text>
        <g id="Group_54" data-name="Group 54" transform="translate(555 3194)">
          <path id="star" d="M14.421,18,8.911,13.96,3.3,17.851l2.14-6.488L0,7.224l6.832.03L9.088.806,11.17,7.312,18,7.466l-5.545,3.991Z" transform="translate(405 2196.194)" fill="#ff7373"/>
          <path id="star-2" data-name="star" d="M14.421,18,8.911,13.96,3.3,17.851l2.14-6.488L0,7.224l6.832.03L9.088.806,11.17,7.312,18,7.466l-5.545,3.991Z" transform="translate(451 2196.194)" fill="#ff7373"/>
          <path id="star-3" data-name="star" d="M14.421,18,8.911,13.96,3.3,17.851l2.14-6.488L0,7.224l6.832.03L9.088.806,11.17,7.312,18,7.466l-5.545,3.991Z" transform="translate(428 2196.194)" fill="#ff7373"/>
          <path id="star-4" data-name="star" d="M14.421,18,8.911,13.96,3.3,17.851l2.14-6.488L0,7.224l6.832.03L9.088.806,11.17,7.312,18,7.466l-5.545,3.991Z" transform="translate(474 2196.194)" fill="#ff7373"/>
          <path id="star-5" data-name="star" d="M14.421,18,8.911,13.96,3.3,17.851l2.14-6.488L0,7.224l6.832.03L9.088.806,11.17,7.312,18,7.466l-5.545,3.991Z" transform="translate(497 2196.194)" fill="#ff7373"/>
        </g>
      </g>
    </g>
    <g id="_03" data-name="03">
      <g id="img-2" data-name="img">
        <rect id="bg-2" data-name="bg" width="160" height="132" transform="translate(785 5638)" fill="#f5f5f5"/>
      </g>
      <g id="text-2" data-name="text">
        <text id="Modern_Black_Blouse-2" data-name="Modern Black
Blouse" transform="translate(960 5661)" fill="#23262a" font-size="16" font-family="Poppins-SemiBold, Poppins" font-weight="600" letter-spacing="0.1em"><tspan x="0" y="17">Modern Black</tspan><tspan x="0" y="42">Blouse</tspan></text>
        <text id="Category-2" data-name="Category" transform="translate(960 5652)" fill="#616365" font-size="13" font-family="Poppins-Medium, Poppins" font-weight="500" letter-spacing="0.1em"><tspan x="0" y="0">Category</tspan></text>
        <text id="_35.00-2" data-name="$35.00" transform="translate(960 5760)" fill="#23262a" font-size="18" font-family="Poppins-SemiBold, Poppins" font-weight="600" letter-spacing="0.1em"><tspan x="0" y="0">$35.00</tspan></text>
        <g id="Group_52" data-name="Group 52" transform="translate(555 3518)">
          <path id="star-6" data-name="star" d="M14.421,18,8.911,13.96,3.3,17.851l2.14-6.488L0,7.224l6.832.03L9.088.806,11.17,7.312,18,7.466l-5.545,3.991Z" transform="translate(405 2196.194)" fill="#ff7373"/>
          <path id="star-7" data-name="star" d="M14.421,18,8.911,13.96,3.3,17.851l2.14-6.488L0,7.224l6.832.03L9.088.806,11.17,7.312,18,7.466l-5.545,3.991Z" transform="translate(451 2196.194)" fill="#ff7373"/>
          <path id="star-8" data-name="star" d="M14.421,18,8.911,13.96,3.3,17.851l2.14-6.488L0,7.224l6.832.03L9.088.806,11.17,7.312,18,7.466l-5.545,3.991Z" transform="translate(428 2196.194)" fill="#ff7373"/>
          <path id="star-9" data-name="star" d="M14.421,18,8.911,13.96,3.3,17.851l2.14-6.488L0,7.224l6.832.03L9.088.806,11.17,7.312,18,7.466l-5.545,3.991Z" transform="translate(474 2196.194)" fill="#ff7373"/>
          <path id="star-10" data-name="star" d="M14.421,18,8.911,13.96,3.3,17.851l2.14-6.488L0,7.224l6.832.03L9.088.806,11.17,7.312,18,7.466l-5.545,3.991Z" transform="translate(497 2196.194)" fill="#ff7373"/>
        </g>
      </g>
    </g>
    <g id="_02" data-name="02">
      <g id="img-3" data-name="img">
        <rect id="bg-3" data-name="bg" width="160" height="132" transform="translate(785 5476)" fill="#f5f5f5"/>
      </g>
      <g id="text-3" data-name="text">
        <text id="Modern_Black_Blouse-3" data-name="Modern Black
Blouse" transform="translate(960 5499)" fill="#23262a" font-size="16" font-family="Poppins-SemiBold, Poppins" font-weight="600" letter-spacing="0.1em"><tspan x="0" y="17">Modern Black</tspan><tspan x="0" y="42">Blouse</tspan></text>
        <text id="Category-3" data-name="Category" transform="translate(960 5490)" fill="#616365" font-size="13" font-family="Poppins-Medium, Poppins" font-weight="500" letter-spacing="0.1em"><tspan x="0" y="0">Category</tspan></text>
        <text id="_35.00-3" data-name="$35.00" transform="translate(960 5598)" fill="#23262a" font-size="18" font-family="Poppins-SemiBold, Poppins" font-weight="600" letter-spacing="0.1em"><tspan x="0" y="0">$35.00</tspan></text>
        <g id="Group_53" data-name="Group 53" transform="translate(555 3356)">
          <path id="star-11" data-name="star" d="M14.421,18,8.911,13.96,3.3,17.851l2.14-6.488L0,7.224l6.832.03L9.088.806,11.17,7.312,18,7.466l-5.545,3.991Z" transform="translate(405 2196.194)" fill="#ff7373"/>
          <path id="star-12" data-name="star" d="M14.421,18,8.911,13.96,3.3,17.851l2.14-6.488L0,7.224l6.832.03L9.088.806,11.17,7.312,18,7.466l-5.545,3.991Z" transform="translate(451 2196.194)" fill="#ff7373"/>
          <path id="star-13" data-name="star" d="M14.421,18,8.911,13.96,3.3,17.851l2.14-6.488L0,7.224l6.832.03L9.088.806,11.17,7.312,18,7.466l-5.545,3.991Z" transform="translate(428 2196.194)" fill="#ff7373"/>
          <path id="star-14" data-name="star" d="M14.421,18,8.911,13.96,3.3,17.851l2.14-6.488L0,7.224l6.832.03L9.088.806,11.17,7.312,18,7.466l-5.545,3.991Z" transform="translate(474 2196.194)" fill="#ff7373"/>
          <path id="star-15" data-name="star" d="M14.421,18,8.911,13.96,3.3,17.851l2.14-6.488L0,7.224l6.832.03L9.088.806,11.17,7.312,18,7.466l-5.545,3.991Z" transform="translate(497 2196.194)" fill="#ff7373"/>
        </g>
      </g>
    </g>
    <g id="text-4" data-name="text">
      <text id="Best_Selling_Product-2" data-name="Best Selling Product" transform="translate(784 5284)" fill="#222529" font-size="20" font-family="Poppins-Bold, Poppins" font-weight="700"><tspan x="0" y="0">Best Selling Product</tspan></text>
    </g>
  </g>
</svg>
