<svg xmlns="http://www.w3.org/2000/svg" width="1110" height="978" viewBox="0 0 1110 978">
  <g id="Description" transform="translate(-405 -255)">
    <g id="text">
      <text id="SKU:_12345670" data-name="SKU: 12345670" transform="translate(974 308)" fill="#616365" font-size="13" font-family="Poppins-Medium, Poppins" font-weight="500" letter-spacing="0.1em"><tspan x="0" y="0">SKU: 12345670</tspan></text>
      <text id="BRAND:_The_Northland" data-name="BRAND: The Northland" transform="translate(1096 308)" fill="#616365" font-size="13" font-family="Poppins-Medium, Poppins" font-weight="500" letter-spacing="0.1em"><tspan x="0" y="0">BRAND: The Northland</tspan></text>
      <text id="_35.00" data-name="$35.00" transform="translate(974 387)" fill="#23262a" font-size="18" font-family="Poppins-SemiBold, Poppins" font-weight="600" letter-spacing="0.1em"><tspan x="0" y="0">$35.00</tspan></text>
      <g id="Group_400" data-name="Group 400" transform="translate(569 -1866)">
        <path id="star" d="M14.421,18,8.911,13.96,3.3,17.851l2.14-6.488L0,7.224l6.832.03L9.088.806,11.17,7.312,18,7.466l-5.545,3.991Z" transform="translate(405 2196.194)" fill="#ff7373"/>
        <path id="star-2" data-name="star" d="M14.421,18,8.911,13.96,3.3,17.851l2.14-6.488L0,7.224l6.832.03L9.088.806,11.17,7.312,18,7.466l-5.545,3.991Z" transform="translate(451 2196.194)" fill="#ff7373"/>
        <path id="star-3" data-name="star" d="M14.421,18,8.911,13.96,3.3,17.851l2.14-6.488L0,7.224l6.832.03L9.088.806,11.17,7.312,18,7.466l-5.545,3.991Z" transform="translate(428 2196.194)" fill="#ff7373"/>
        <path id="star-4" data-name="star" d="M14.421,18,8.911,13.96,3.3,17.851l2.14-6.488L0,7.224l6.832.03L9.088.806,11.17,7.312,18,7.466l-5.545,3.991Z" transform="translate(474 2196.194)" fill="#ff7373"/>
        <path id="star-5" data-name="star" d="M14.421,18,8.911,13.96,3.3,17.851l2.14-6.488L0,7.224l6.832.03L9.088.806,11.17,7.312,18,7.466l-5.545,3.991Z" transform="translate(497 2196.194)" fill="#ff7373"/>
      </g>
      <text id="Modern_Black_Blouse" data-name="Modern Black Blouse" transform="translate(974 280)" fill="#222529" font-size="24" font-family="Poppins-Bold, Poppins" font-weight="700" letter-spacing="0.05em"><tspan x="0" y="0">Modern Black Blouse</tspan></text>
      <text id="Discovered_had_get_considered_projection_who_favourable._Necessary_up_knowledge_it_tolerably._Unwilling_departure_education_is_be_dashwoods_or_an._Use_off_agreeable_law_unwilling_sir_deficient_curiosity_instantly._read_more_" data-name="Discovered had get considered projection who favourable. Necessary up knowledge it tolerably. Unwilling departure education is be dashwoods or an. Use off agreeable law unwilling sir deficient curiosity instantly. (read more) " transform="translate(974 411)" fill="#616365" font-size="16" font-family="Poppins-Regular, Poppins"><tspan x="0" y="17">Discovered had get considered projection who favourable. </tspan><tspan x="0" y="43">Necessary up knowledge it tolerably. Unwilling departure education </tspan><tspan x="0" y="69">is be dashwoods or an. Use off agreeable law unwilling sir deficient </tspan><tspan x="0" y="95">curiosity instantly. (</tspan><tspan y="95" fill="#6794c2">read more</tspan><tspan y="95">) </tspan></text>
    </g>
    <g id="btn">
      <rect id="bg" width="207" height="50" transform="translate(1224 686)" fill="#ff7373"/>
      <text id="ADD_TO_CART" data-name="ADD TO CART" transform="translate(1274 717)" fill="#fff" font-size="16" font-family="Poppins-SemiBold, Poppins" font-weight="600"><tspan x="0" y="0">ADD TO CART</tspan></text>
    </g>
    <g id="Qty:">
      <text id="Qty:-2" data-name="Qty:" transform="translate(975 717)" fill="#23262a" font-size="16" font-family="Poppins-Medium, Poppins" font-weight="500"><tspan x="0" y="0">Qty:</tspan></text>
      <g id="box" transform="translate(-4 -66)">
        <g id="bg-2" data-name="bg" transform="translate(1070 752)" fill="#fff" stroke="#23262a" stroke-width="1">
          <rect width="128" height="50" stroke="none"/>
          <rect x="0.5" y="0.5" width="127" height="49" fill="none"/>
        </g>
        <text id="_1" data-name="1" transform="translate(1131 783)" fill="#23262a" font-size="16" font-family="Poppins-SemiBold, Poppins" font-weight="600"><tspan x="0" y="0">1</tspan></text>
        <rect id="Rectangle_205" data-name="Rectangle 205" width="1" height="50" transform="translate(1105 752)" fill="#23262a"/>
        <rect id="Rectangle_206" data-name="Rectangle 206" width="1" height="50" transform="translate(1162 752)" fill="#23262a"/>
        <path id="Icon_open-plus" data-name="Icon open-plus" d="M6,0V6H0v4H6v6h4V10h6V6H10V0Z" transform="translate(1173 769)"/>
        <path id="Icon_awesome-minus" data-name="Icon awesome-minus" d="M13,6.5H1a1,1,0,0,0-1,1v1a1,1,0,0,0,1,1H13a1,1,0,0,0,1-1v-1A1,1,0,0,0,13,6.5Z" transform="translate(1081 769.5)"/>
      </g>
    </g>
    <g id="Group_497" data-name="Group 497">
      <text id="Color:" transform="translate(975 642)" fill="#23262a" font-size="16" font-family="Poppins-Medium, Poppins" font-weight="500"><tspan x="0" y="0">Color:</tspan></text>
      <g id="box-2" data-name="box">
        <g id="bg-3" data-name="bg" transform="translate(1066 616)" fill="#fff" stroke="#23262a" stroke-width="1">
          <rect width="208" height="40" stroke="none"/>
          <rect x="0.5" y="0.5" width="207" height="39" fill="none"/>
        </g>
        <text id="Choose_an_Option" data-name="Choose an Option" transform="translate(1081 641)" fill="#616365" font-size="14" font-family="Poppins-Regular, Poppins"><tspan x="0" y="0">Choose an Option</tspan></text>
        <path id="arrow-ios-forward-fill" d="M6.667,12.667a.667.667,0,0,1-.514-1.093L9.14,8,6.26,4.42a.681.681,0,1,1,1.073-.84l3.22,4a.667.667,0,0,1,0,.847l-3.333,4a.667.667,0,0,1-.553.24Z" transform="translate(1261.991 628.001) rotate(90)" fill="#616365"/>
      </g>
    </g>
    <g id="Size:">
      <text id="Size:-2" data-name="Size:" transform="translate(974 572)" fill="#23262a" font-size="16" font-family="Poppins-Medium, Poppins" font-weight="500"><tspan x="0" y="0">Size:</tspan></text>
      <g id="s">
        <g id="bg-4" data-name="bg" transform="translate(1066 546)" fill="#fff" stroke="#23262a" stroke-width="1">
          <rect width="40" height="40" stroke="none"/>
          <rect x="0.5" y="0.5" width="39" height="39" fill="none"/>
        </g>
        <text id="S-2" data-name="S" transform="translate(1087 572)" fill="#23262a" font-size="16" font-family="Poppins-Medium, Poppins" font-weight="500"><tspan x="-4.832" y="0">S</tspan></text>
      </g>
      <g id="l">
        <g id="bg-5" data-name="bg" transform="translate(1166 546)" fill="#fff" stroke="#23262a" stroke-width="1">
          <rect width="40" height="40" stroke="none"/>
          <rect x="0.5" y="0.5" width="39" height="39" fill="none"/>
        </g>
        <text id="L-2" data-name="L" transform="translate(1187 572)" fill="#23262a" font-size="16" font-family="Poppins-Medium, Poppins" font-weight="500"><tspan x="-3.552" y="0">L</tspan></text>
      </g>
      <g id="m">
        <g id="bg-6" data-name="bg" transform="translate(1116 546)" fill="#fff" stroke="#23262a" stroke-width="1">
          <rect width="40" height="40" stroke="none"/>
          <rect x="0.5" y="0.5" width="39" height="39" fill="none"/>
        </g>
        <text id="M-2" data-name="M" transform="translate(1136 572)" fill="#23262a" font-size="16" font-family="Poppins-Medium, Poppins" font-weight="500"><tspan x="-7.056" y="0">M</tspan></text>
      </g>
      <g id="x">
        <g id="bg-7" data-name="bg" transform="translate(1216 546)" fill="#fff" stroke="#23262a" stroke-width="1">
          <rect width="40" height="40" stroke="none"/>
          <rect x="0.5" y="0.5" width="39" height="39" fill="none"/>
        </g>
        <text id="X-2" data-name="X" transform="translate(1236 572)" fill="#23262a" font-size="16" font-family="Poppins-Medium, Poppins" font-weight="500"><tspan x="-5.28" y="0">X</tspan></text>
      </g>
    </g>
    <g id="img">
      <g id="_01" data-name="01">
        <rect id="bg-8" data-name="bg" width="540" height="444" transform="translate(405 263)" fill="#f7f8fa"/>
      </g>
      <g id="_02" data-name="02">
        <rect id="bg-9" data-name="bg" width="160" height="132" transform="translate(405 737)" fill="#f7f8fa"/>
      </g>
      <g id="_03" data-name="03">
        <rect id="bg-10" data-name="bg" width="160" height="132" transform="translate(595 737)" fill="#f7f8fa"/>
      </g>
      <g id="_04" data-name="04">
        <rect id="bg-11" data-name="bg" width="160" height="132" transform="translate(785 737)" fill="#f7f8fa"/>
      </g>
    </g>
    <g id="Share:">
      <text id="Share:-2" data-name="Share:" transform="translate(975 790)" fill="#23262a" font-size="16" font-family="Poppins-Medium, Poppins" font-weight="500"><tspan x="0" y="0">Share:</tspan></text>
      <g id="social">
        <g id="Group_498" data-name="Group 498">
          <circle id="Ellipse_13" data-name="Ellipse 13" cx="18" cy="18" r="18" transform="translate(1049 766)" fill="#f4f4f4"/>
          <path id="Icon_awesome-facebook-f" data-name="Icon awesome-facebook-f" d="M9.814,10.125l.5-3.258H7.188V4.753a1.629,1.629,0,0,1,1.837-1.76h1.421V.22A17.329,17.329,0,0,0,7.923,0C5.349,0,3.666,1.56,3.666,4.385V6.867H.8v3.258H3.666V18H7.188V10.125Z" transform="translate(1061.195 775)"/>
        </g>
        <g id="Group_499" data-name="Group 499">
          <circle id="Ellipse_14" data-name="Ellipse 14" cx="18" cy="18" r="18" transform="translate(1100 766)" fill="#f4f4f4"/>
          <g id="Icon_feather-instagram" data-name="Icon feather-instagram" transform="translate(1109.5 775.5)">
            <path id="Path_76" data-name="Path 76" d="M5.25,1.5h7.5A3.75,3.75,0,0,1,16.5,5.25v7.5a3.75,3.75,0,0,1-3.75,3.75H5.25A3.75,3.75,0,0,1,1.5,12.75V5.25A3.75,3.75,0,0,1,5.25,1.5Z" fill="none" stroke="#000" stroke-linecap="round" stroke-linejoin="round" stroke-width="1.5"/>
            <path id="Path_77" data-name="Path 77" d="M12,8.528A3,3,0,1,1,9.472,6,3,3,0,0,1,12,8.528Z" fill="none" stroke="#000" stroke-linecap="round" stroke-linejoin="round" stroke-width="1.5"/>
            <path id="Path_78" data-name="Path 78" d="M13.125,4.875h0" fill="none" stroke="#000" stroke-linecap="round" stroke-linejoin="round" stroke-width="1.5"/>
          </g>
        </g>
        <g id="Group_500" data-name="Group 500">
          <circle id="Ellipse_15" data-name="Ellipse 15" cx="18" cy="18" r="18" transform="translate(1151 766)" fill="#f4f4f4"/>
          <path id="Icon_awesome-twitter" data-name="Icon awesome-twitter" d="M16.15,5.334c.011.16.011.32.011.48a10.424,10.424,0,0,1-10.5,10.5A10.425,10.425,0,0,1,0,14.654a7.632,7.632,0,0,0,.891.046,7.388,7.388,0,0,0,4.58-1.576,3.7,3.7,0,0,1-3.449-2.558,4.652,4.652,0,0,0,.7.057,3.9,3.9,0,0,0,.971-.126A3.69,3.69,0,0,1,.731,6.876V6.83A3.715,3.715,0,0,0,2.4,7.3,3.695,3.695,0,0,1,1.256,2.364a10.486,10.486,0,0,0,7.607,3.86,4.165,4.165,0,0,1-.091-.845,3.693,3.693,0,0,1,6.385-2.524A7.263,7.263,0,0,0,17.5,1.964,3.679,3.679,0,0,1,15.876,4,7.4,7.4,0,0,0,18,3.426a7.93,7.93,0,0,1-1.85,1.907Z" transform="translate(1160 775.31)"/>
        </g>
        <g id="Group_501" data-name="Group 501">
          <circle id="Ellipse_16" data-name="Ellipse 16" cx="18" cy="18" r="18" transform="translate(1202 766)" fill="#f4f4f4"/>
          <path id="Icon_awesome-google" data-name="Icon awesome-google" d="M17.156,9.2a8.1,8.1,0,0,1-8.437,8.515,8.719,8.719,0,0,1,0-17.437,8.385,8.385,0,0,1,5.846,2.282L12.192,4.845C9.088,1.849,3.315,4.1,3.315,9a5.461,5.461,0,0,0,5.4,5.505,4.715,4.715,0,0,0,4.95-3.758H8.719v-3h8.3A7.643,7.643,0,0,1,17.156,9.2Z" transform="translate(1210.995 774.719)"/>
        </g>
        <g id="Group_502" data-name="Group 502">
          <circle id="Ellipse_17" data-name="Ellipse 17" cx="18" cy="18" r="18" transform="translate(1253 766)" fill="#f4f4f4"/>
          <path id="Icon_awesome-linkedin" data-name="Icon awesome-linkedin" d="M14.625,1.125H1.121A1.13,1.13,0,0,0,0,2.261V15.739a1.13,1.13,0,0,0,1.121,1.136h13.5a1.133,1.133,0,0,0,1.125-1.136V2.261A1.133,1.133,0,0,0,14.625,1.125ZM4.76,14.625H2.426V7.109H4.764v7.516ZM3.593,6.082A1.354,1.354,0,1,1,4.946,4.729,1.354,1.354,0,0,1,3.593,6.082Zm9.918,8.543H11.176V10.969c0-.872-.018-1.993-1.213-1.993-1.216,0-1.4.949-1.4,1.93v3.72H6.226V7.109H8.466V8.135H8.5a2.459,2.459,0,0,1,2.211-1.213c2.363,0,2.8,1.557,2.8,3.582Z" transform="translate(1263 774.875)"/>
        </g>
      </g>
    </g>
    <g id="Description-2" data-name="Description">
      <g id="text-2" data-name="text">
        <text id="Way_extensive_and_dejection_get_delivered_deficient_sincerity_gentleman_age._Too_end_instrument_possession_contrasted_motionless._Calling_offence_six_joy_feeling._Coming_merits_and_was_talent_enough_far._Sir_joy_northward_sportsmen_education._Discovery_inc" data-name="Way extensive and dejection get delivered deficient sincerity gentleman age. Too end instrument possession contrasted motionless. Calling offence six joy feeling. Coming merits and was talent enough far. Sir joy northward sportsmen education. Discovery inc" transform="translate(405 976)" fill="#616365" font-size="16" font-family="Poppins-Regular, Poppins"><tspan x="0" y="17">Way extensive and dejection get delivered deficient sincerity gentleman age. Too end instrument possession contrasted motionless. </tspan><tspan x="0" y="43">Calling offence six joy feeling. Coming merits and was talent enough far. Sir joy northward sportsmen education. Discovery incommode </tspan><tspan x="0" y="69">earnestly no he commanded if. Put still any about manor heard. </tspan></text>
        <text id="On_even_feet_time_have_an_no_at._Relation_so_in_confined_smallest_children_unpacked_delicate._Why_sir_end_believe_uncivil_respect._Always_get_adieus_nature_day_course_for_common._My_little_garret_repair_to_desire_he_esteem._" data-name="On even feet time have an no at. Relation so in confined smallest children unpacked delicate. Why sir end believe uncivil respect. Always get adieus nature day course for common. My little garret repair to desire he esteem. " transform="translate(405 1184)" fill="#616365" font-size="16" font-family="Poppins-Regular, Poppins"><tspan x="0" y="17">On even feet time have an no at. Relation so in confined smallest children unpacked delicate. Why sir end believe uncivil respect. Always </tspan><tspan x="0" y="43">get adieus nature day course for common. My little garret repair to desire he esteem. </tspan></text>
        <text id="_Village_did_removed_enjoyed_explain_nor_ham_saw_calling_talking._Securing_as_informed_declared_or_margaret._Joy_horrible_moreover_man_feelings_own_shy." data-name="* Village did removed enjoyed explain nor ham saw calling talking.
* Securing as informed declared or margaret.
* Joy horrible moreover man feelings own shy." transform="translate(405 1071)" fill="#616365" font-size="16" font-family="Poppins-Regular, Poppins"><tspan x="0" y="17">* Village did removed enjoyed explain nor ham saw calling talking.</tspan><tspan x="0" y="52">* Securing as informed declared or margaret.</tspan><tspan x="0" y="87">* Joy horrible moreover man feelings own shy.</tspan></text>
      </g>
      <g id="menu">
        <text id="Description-3" data-name="Description" transform="translate(405 941)" fill="#ff7373" font-size="16" font-family="Poppins-Medium, Poppins" font-weight="500"><tspan x="0" y="0">Description</tspan></text>
        <text id="Shopping_Returns_" data-name="Shopping &amp; Returns " transform="translate(679 941)" fill="#616365" font-size="16" font-family="Poppins-Medium, Poppins" font-weight="500"><tspan x="0" y="0">Shopping &amp; Returns </tspan></text>
        <text id="Additional" transform="translate(546 941)" fill="#616365" font-size="16" font-family="Poppins-Medium, Poppins" font-weight="500"><tspan x="0" y="0">Additional</tspan></text>
        <text id="Reviews" transform="translate(892 941)" fill="#616365" font-size="16" font-family="Poppins-Medium, Poppins" font-weight="500"><tspan x="0" y="0">Reviews</tspan></text>
        <rect id="Rectangle_207" data-name="Rectangle 207" width="552" height="1" transform="translate(405 956)" fill="#616365" opacity="0.2"/>
        <rect id="Rectangle_208" data-name="Rectangle 208" width="91" height="1" transform="translate(405 956)" fill="#ff7373"/>
      </g>
    </g>
  </g>
</svg>
