<svg xmlns="http://www.w3.org/2000/svg" xmlns:xlink="http://www.w3.org/1999/xlink" width="1119" height="379" viewBox="0 0 1119 379">
  <defs>
    <filter id="Rectangle_114" x="1046" y="0" width="38" height="38" filterUnits="userSpaceOnUse">
      <feOffset input="SourceAlpha"/>
      <feGaussianBlur stdDeviation="3" result="blur"/>
      <feFlood flood-opacity="0.161"/>
      <feComposite operator="in" in2="blur"/>
      <feComposite in="SourceGraphic"/>
    </filter>
    <filter id="Rectangle_115" x="1081" y="0" width="38" height="38" filterUnits="userSpaceOnUse">
      <feOffset input="SourceAlpha"/>
      <feGaussianBlur stdDeviation="3" result="blur-2"/>
      <feFlood flood-opacity="0.161"/>
      <feComposite operator="in" in2="blur-2"/>
      <feComposite in="SourceGraphic"/>
    </filter>
  </defs>
  <g id="Related_Products" data-name="Related Products" transform="translate(-405 -1281)">
    <g id="text">
      <text id="Related_Products-2" data-name="Related Products" transform="translate(405 1307)" fill="#222529" font-size="20" font-family="Poppins-Bold, Poppins" font-weight="700"><tspan x="0" y="0">Related Products</tspan></text>
    </g>
    <g id="btn">
      <g transform="matrix(1, 0, 0, 1, 405, 1281)" filter="url(#Rectangle_114)">
        <rect id="Rectangle_114-2" data-name="Rectangle 114" width="20" height="20" rx="10" transform="translate(1055 9)" fill="#fff"/>
      </g>
      <g transform="matrix(1, 0, 0, 1, 405, 1281)" filter="url(#Rectangle_115)">
        <rect id="Rectangle_115-2" data-name="Rectangle 115" width="20" height="20" rx="10" transform="translate(1090 9)" fill="#fff"/>
      </g>
      <path id="arrow-ios-forward-fill" d="M6.667,12.667a.667.667,0,0,1-.514-1.093L9.14,8,6.26,4.42a.681.681,0,1,1,1.073-.84l3.22,4a.667.667,0,0,1,0,.847l-3.333,4a.667.667,0,0,1-.553.24Z" transform="translate(1497.001 1291.686)"/>
      <path id="arrow-ios-back-outline" d="M9.22,12.667a.667.667,0,0,1-.52-.247l-3.22-4a.667.667,0,0,1,0-.847l3.333-4a.668.668,0,1,1,1.027.853L6.86,8l2.88,3.573a.667.667,0,0,1-.52,1.093Z" transform="translate(1461.672 1292.668)"/>
    </g>
    <g id="_01" data-name="01" transform="translate(0 -342)">
      <g id="img">
        <rect id="bg" width="255" height="210" transform="translate(405 1679)" fill="#f7f8fa"/>
      </g>
      <g id="text-2" data-name="text">
        <text id="Modern_Black_Blouse" data-name="Modern Black Blouse" transform="translate(434 1939)" fill="#23262a" font-size="16" font-family="Poppins-SemiBold, Poppins" font-weight="600" letter-spacing="0.1em"><tspan x="0" y="0">Modern Black Blouse</tspan></text>
        <text id="Category" transform="translate(497 1913)" fill="#616365" font-size="13" font-family="Poppins-Medium, Poppins" font-weight="500" letter-spacing="0.1em"><tspan x="0" y="0">Category</tspan></text>
        <text id="_35.00" data-name="$35.00" transform="translate(497 1996)" fill="#23262a" font-size="18" font-family="Poppins-SemiBold, Poppins" font-weight="600" letter-spacing="0.1em"><tspan x="0" y="0">$35.00</tspan></text>
        <g id="Group_2" data-name="Group 2" transform="translate(72 -246)">
          <path id="star" d="M14.421,18,8.911,13.96,3.3,17.851l2.14-6.488L0,7.224l6.832.03L9.088.806,11.17,7.312,18,7.466l-5.545,3.991Z" transform="translate(405 2196.194)" fill="#ff7373"/>
          <path id="star-2" data-name="star" d="M14.421,18,8.911,13.96,3.3,17.851l2.14-6.488L0,7.224l6.832.03L9.088.806,11.17,7.312,18,7.466l-5.545,3.991Z" transform="translate(451 2196.194)" fill="#ff7373"/>
          <path id="star-3" data-name="star" d="M14.421,18,8.911,13.96,3.3,17.851l2.14-6.488L0,7.224l6.832.03L9.088.806,11.17,7.312,18,7.466l-5.545,3.991Z" transform="translate(428 2196.194)" fill="#ff7373"/>
          <path id="star-4" data-name="star" d="M14.421,18,8.911,13.96,3.3,17.851l2.14-6.488L0,7.224l6.832.03L9.088.806,11.17,7.312,18,7.466l-5.545,3.991Z" transform="translate(474 2196.194)" fill="#ff7373"/>
          <path id="star-5" data-name="star" d="M14.421,18,8.911,13.96,3.3,17.851l2.14-6.488L0,7.224l6.832.03L9.088.806,11.17,7.312,18,7.466l-5.545,3.991Z" transform="translate(497 2196.194)" fill="#ff7373"/>
        </g>
      </g>
    </g>
    <g id="_02" data-name="02" transform="translate(0 -342)">
      <g id="text-3" data-name="text">
        <text id="Modern_Black_Blouse-2" data-name="Modern Black Blouse" transform="translate(719 1939)" fill="#23262a" font-size="16" font-family="Poppins-SemiBold, Poppins" font-weight="600" letter-spacing="0.1em"><tspan x="0" y="0">Modern Black Blouse</tspan></text>
        <text id="Category-2" data-name="Category" transform="translate(782 1913)" fill="#616365" font-size="13" font-family="Poppins-Medium, Poppins" font-weight="500" letter-spacing="0.1em"><tspan x="0" y="0">Category</tspan></text>
        <g id="Group_10" data-name="Group 10" transform="translate(52 -246)">
          <text id="_35.00-2" data-name="$35.00" transform="translate(694 2241)" fill="#616365" font-size="16" font-family="Poppins-Regular, Poppins" letter-spacing="0.1em" text-decoration="line-through"><tspan x="0" y="0">$35.00</tspan></text>
          <text id="_30.00" data-name="$30.00" transform="translate(765 2242)" fill="#23262a" font-size="18" font-family="Poppins-SemiBold, Poppins" font-weight="600" letter-spacing="0.1em"><tspan x="0" y="0">$30.00</tspan></text>
        </g>
        <g id="Group_3" data-name="Group 3" transform="translate(72 -246)">
          <path id="star-6" data-name="star" d="M14.421,18,8.911,13.96,3.3,17.851l2.14-6.488L0,7.224l6.832.03L9.088.806,11.17,7.312,18,7.466l-5.545,3.991Z" transform="translate(690 2196.194)" fill="#ff7373"/>
          <path id="star-7" data-name="star" d="M14.421,18,8.911,13.96,3.3,17.851l2.14-6.488L0,7.224l6.832.03L9.088.806,11.17,7.312,18,7.466l-5.545,3.991Z" transform="translate(736 2196.194)" fill="#ff7373"/>
          <path id="star-8" data-name="star" d="M14.421,18,8.911,13.96,3.3,17.851l2.14-6.488L0,7.224l6.832.03L9.088.806,11.17,7.312,18,7.466l-5.545,3.991Z" transform="translate(713 2196.194)" fill="#ff7373"/>
          <path id="star-9" data-name="star" d="M14.421,18,8.911,13.96,3.3,17.851l2.14-6.488L0,7.224l6.832.03L9.088.806,11.17,7.312,18,7.466l-5.545,3.991Z" transform="translate(759 2196.194)" fill="#ff7373"/>
          <path id="star-10" data-name="star" d="M14.421,18,8.911,13.96,3.3,17.851l2.14-6.488L0,7.224l6.832.03L9.088.806,11.17,7.312,18,7.466l-5.545,3.991Z" transform="translate(782 2196.194)" fill="#ff7373"/>
        </g>
      </g>
      <g id="img-2" data-name="img">
        <rect id="bg-2" data-name="bg" width="255" height="210" transform="translate(690 1679)" fill="#f7f8fa"/>
      </g>
    </g>
    <g id="_03" data-name="03" transform="translate(0 -342)">
      <g id="img-3" data-name="img">
        <rect id="bg-3" data-name="bg" width="255" height="210" transform="translate(975 1679)" fill="#f7f8fa"/>
      </g>
      <g id="text-4" data-name="text">
        <text id="Modern_Black_Blouse-3" data-name="Modern Black Blouse" transform="translate(1004 1939)" fill="#23262a" font-size="16" font-family="Poppins-SemiBold, Poppins" font-weight="600" letter-spacing="0.1em"><tspan x="0" y="0">Modern Black Blouse</tspan></text>
        <text id="Category-3" data-name="Category" transform="translate(1067 1913)" fill="#616365" font-size="13" font-family="Poppins-Medium, Poppins" font-weight="500" letter-spacing="0.1em"><tspan x="0" y="0">Category</tspan></text>
        <text id="_35.00-3" data-name="$35.00" transform="translate(1067 1996)" fill="#23262a" font-size="18" font-family="Poppins-SemiBold, Poppins" font-weight="600" letter-spacing="0.1em"><tspan x="0" y="0">$35.00</tspan></text>
        <g id="Group_4" data-name="Group 4" transform="translate(72 -246)">
          <path id="star-11" data-name="star" d="M14.421,18,8.911,13.96,3.3,17.851l2.14-6.488L0,7.224l6.832.03L9.088.806,11.17,7.312,18,7.466l-5.545,3.991Z" transform="translate(975 2196.194)" fill="#ff7373"/>
          <path id="star-12" data-name="star" d="M14.421,18,8.911,13.96,3.3,17.851l2.14-6.488L0,7.224l6.832.03L9.088.806,11.17,7.312,18,7.466l-5.545,3.991Z" transform="translate(1021 2196.194)" fill="#ff7373"/>
          <path id="star-13" data-name="star" d="M14.421,18,8.911,13.96,3.3,17.851l2.14-6.488L0,7.224l6.832.03L9.088.806,11.17,7.312,18,7.466l-5.545,3.991Z" transform="translate(998 2196.194)" fill="#ff7373"/>
          <path id="star-14" data-name="star" d="M14.421,18,8.911,13.96,3.3,17.851l2.14-6.488L0,7.224l6.832.03L9.088.806,11.17,7.312,18,7.466l-5.545,3.991Z" transform="translate(1044 2196.194)" fill="#ff7373"/>
          <path id="star-15" data-name="star" d="M14.421,18,8.911,13.96,3.3,17.851l2.14-6.488L0,7.224l6.832.03L9.088.806,11.17,7.312,18,7.466l-5.545,3.991Z" transform="translate(1067 2196.194)" fill="#ff7373"/>
        </g>
      </g>
    </g>
    <g id="_04" data-name="04" transform="translate(0 -342)">
      <g id="img-4" data-name="img">
        <rect id="bg-4" data-name="bg" width="255" height="210" transform="translate(1260 1679)" fill="#f7f8fa"/>
      </g>
      <g id="text-5" data-name="text">
        <text id="Modern_Black_Blouse-4" data-name="Modern Black Blouse" transform="translate(1289 1939)" fill="#23262a" font-size="16" font-family="Poppins-SemiBold, Poppins" font-weight="600" letter-spacing="0.1em"><tspan x="0" y="0">Modern Black Blouse</tspan></text>
        <text id="Category-4" data-name="Category" transform="translate(1352 1913)" fill="#616365" font-size="13" font-family="Poppins-Medium, Poppins" font-weight="500" letter-spacing="0.1em"><tspan x="0" y="0">Category</tspan></text>
        <text id="_35.00-4" data-name="$35.00" transform="translate(1352 1996)" fill="#23262a" font-size="18" font-family="Poppins-SemiBold, Poppins" font-weight="600" letter-spacing="0.1em"><tspan x="0" y="0">$35.00</tspan></text>
        <g id="Group_5" data-name="Group 5" transform="translate(72 -246)">
          <path id="star-16" data-name="star" d="M14.421,18,8.911,13.96,3.3,17.851l2.14-6.488L0,7.224l6.832.03L9.088.806,11.17,7.312,18,7.466l-5.545,3.991Z" transform="translate(1260 2196.194)" fill="#ff7373"/>
          <path id="star-17" data-name="star" d="M14.421,18,8.911,13.96,3.3,17.851l2.14-6.488L0,7.224l6.832.03L9.088.806,11.17,7.312,18,7.466l-5.545,3.991Z" transform="translate(1306 2196.194)" fill="#ff7373"/>
          <path id="star-18" data-name="star" d="M14.421,18,8.911,13.96,3.3,17.851l2.14-6.488L0,7.224l6.832.03L9.088.806,11.17,7.312,18,7.466l-5.545,3.991Z" transform="translate(1283 2196.194)" fill="#ff7373"/>
          <path id="star-19" data-name="star" d="M14.421,18,8.911,13.96,3.3,17.851l2.14-6.488L0,7.224l6.832.03L9.088.806,11.17,7.312,18,7.466l-5.545,3.991Z" transform="translate(1329 2196.194)" fill="#ff7373"/>
          <path id="star-20" data-name="star" d="M14.421,18,8.911,13.96,3.3,17.851l2.14-6.488L0,7.224l6.832.03L9.088.806,11.17,7.312,18,7.466l-5.545,3.991Z" transform="translate(1352 2196.194)" fill="#ff7373"/>
        </g>
      </g>
    </g>
  </g>
</svg>
